<svg xmlns="http://www.w3.org/2000/svg" viewBox="0 0 128 128"><g transform="translate(12 40) scale(0.375)"><path fill="#e44d26" d="M19.037 113.876L9.032 1.661h109.936l-10.016 112.198l-45.019 12.48z"/><path fill="#f16529" d="m64 116.8l36.378-10.086l8.559-95.878H64z"/><path fill="#ebebeb" d="M64 52.455H45.788L44.53 38.361H64V24.599H29.489l.33 3.692l3.382 37.927H64zm0 35.743l-.061.017l-15.327-4.14l-.979-10.975H33.816l1.928 21.609l28.193 7.826l.063-.017z"/><path fill="#fff" d="M63.952 52.455v13.763h16.947l-1.597 17.849l-15.35 4.143v14.319l28.215-7.82l.207-2.325l3.234-36.233l.335-3.696h-3.708zm0-27.856v13.762h33.244l.276-3.092l.628-6.978l.329-3.692z"/></g><g transform="translate(68 40) scale(0.375)"><path fill="#1572b6" d="M18.814 114.123L8.76 1.352h110.48l-10.064 112.754l-45.243 12.543z"/><path fill="#33a9dc" d="m64.001 117.062l36.559-10.136l8.601-96.354h-45.16z"/><path fill="#fff" d="M64.001 51.429h18.302l1.264-14.163H64.001V23.435h34.682l-.332 3.711l-3.4 38.114h-30.95z"/><path fill="#ebebeb" d="m64.083 87.349l-.061.018l-15.403-4.159l-.985-11.031H33.752l1.937 21.717l28.331 7.863l.063-.018z"/><path fill="#fff" d="m81.127 64.675l-1.666 18.522l-15.426 4.164v14.39l28.354-7.858l.208-2.337l2.406-26.881z"/><path fill="#ebebeb" d="M64.048 23.435v13.831H30.64l-.277-3.108l-.63-7.012l-.331-3.711zm-.047 27.996v13.831H48.792l-.277-3.108l-.631-7.012l-.33-3.711z"/></g></svg>
